<svg width="745" height="746" viewBox="0 0 745 746" fill="none" xmlns="http://www.w3.org/2000/svg">
<path d="M372.509 373.223V745.714" stroke="#5589C2" stroke-width="40.8621" stroke-miterlimit="10"/>
<path d="M372.509 373.223L487.615 727.49" stroke="#5589C2" stroke-width="40.8621" stroke-miterlimit="10"/>
<path d="M372.509 373.223L591.458 674.584" stroke="#5589C2" stroke-width="40.8621" stroke-miterlimit="10"/>
<path d="M372.509 373.223L673.87 592.173" stroke="#5589C2" stroke-width="40.8621" stroke-miterlimit="10"/>
<path d="M372.509 373.223L726.775 488.329" stroke="#5589C2" stroke-width="40.8621" stroke-miterlimit="10"/>
<path d="M372.509 373.223H745" stroke="#5589C2" stroke-width="40.8621" stroke-miterlimit="10"/>
<path d="M372.509 373.229L726.775 258.104" stroke="#5589C2" stroke-width="40.8621" stroke-miterlimit="10"/>
<path d="M372.509 373.21L673.87 154.242" stroke="#5589C2" stroke-width="40.8621" stroke-miterlimit="10"/>
<path d="M372.509 373.229L591.458 71.8679" stroke="#5589C2" stroke-width="40.8621" stroke-miterlimit="10"/>
<path d="M372.509 373.213L487.615 18.9285" stroke="#5589C2" stroke-width="40.8621" stroke-miterlimit="10"/>
<path d="M372.509 373.224V0.7146" stroke="#5589C2" stroke-width="40.8621" stroke-miterlimit="10"/>
<path d="M372.514 373.213L257.39 18.9285" stroke="#5589C2" stroke-width="40.8621" stroke-miterlimit="10"/>
<path d="M372.504 373.229L153.537 71.8679" stroke="#5589C2" stroke-width="40.8621" stroke-miterlimit="10"/>
<path d="M372.501 373.21L71.1399 154.242" stroke="#5589C2" stroke-width="40.8621" stroke-miterlimit="10"/>
<path d="M372.508 373.229L18.223 258.104" stroke="#5589C2" stroke-width="40.8621" stroke-miterlimit="10"/>
<path d="M372.509 373.223H0" stroke="#5589C2" stroke-width="40.8621" stroke-miterlimit="10"/>
<path d="M372.508 373.223L18.223 488.329" stroke="#5589C2" stroke-width="40.8621" stroke-miterlimit="10"/>
<path d="M372.501 373.223L71.1399 592.173" stroke="#5589C2" stroke-width="40.8621" stroke-miterlimit="10"/>
<path d="M372.504 373.223L153.537 674.584" stroke="#5589C2" stroke-width="40.8621" stroke-miterlimit="10"/>
<path d="M372.514 373.223L257.39 727.49" stroke="#5589C2" stroke-width="40.8621" stroke-miterlimit="10"/>
</svg>
